<svg t="1719104896257" class="icon" viewBox="0 0 1024 1024" version="1.1" xmlns="http://www.w3.org/2000/svg" p-id="6102" width="200" height="200"><path d="M512.38442198 510.45688182m-441.8310407 0a441.83104069 441.83104069 0 1 0 883.66208139 0 441.83104069 441.83104069 0 1 0-883.66208139 0Z" fill="#F7CDDF" p-id="6103"></path><path d="M494.63856303 985.86208918A475.71156169 475.71156169 0 0 1 50.49284507 340.55503275a9.40621296 9.40621296 0 1 1 17.5756621 6.72844908 454.73196245 454.73196245 0 0 0-30.01137911 163.17339999C38.05712806 762.22341911 242.8833722 966.99293095 494.63856303 966.99293095s456.59278142-204.76951184 456.5927814-456.53604913a456.12757669 456.12757669 0 0 0-63.13168745-231.80811917 9.40621296 9.40621296 0 0 1 16.20274078-9.56506336 475.26904987 475.26904987 0 0 1-409.60710245 716.78973634zM214.59665456 147.37025363a9.40621296 9.40621296 0 0 1-5.67322854-16.92891405c82.82913706-62.40551422 181.67947159-95.40101156 285.71513701-95.40101156a474.86057741 474.86057741 0 0 1 242.8141826 66.63774273 9.40621296 9.40621296 0 0 1-9.62179565 16.16870142 456.02545857 456.02545857 0 0 0-233.19238695-63.98267176c-99.91690149 0-194.80732249 31.67930831-274.40271927 91.62264133a9.37217359 9.37217359 0 0 1-5.6391892 1.88351189z" fill="#050505" p-id="6104"></path><path d="M151.77132142 363.67911237a424.14191403 424.14191403 0 0 0 4.53858286 62.96149064c2.9614253 20.90017403 7.14826798 41.59611184 11.78896896 62.17858506 3.74433085 16.57717388 12.12936268 36.12711951 10.15507914 53.32834853-2.26929142 19.7428354-12.00455165 37.44330854-14.06960685 57.2996085-10.21181141 98.45320852 41.60745832 195.15906266 122.62116222 249.42916713 65.68464035 44.04694659 158.18095886 58.16193926 235.08724531 53.92971075 118.00315418-6.49017348 237.5267336-61.06663229 307.68187803-160.93814796 33.16569419-47.21260812 53.14680521-105.05684656 56.73228566-163.570526a315.09111454 315.09111454 0 0 0-7.1255751-89.26257826c-3.80106315-16.67929198-7.17096091-33.74436351-14.2624966-49.36843498-3.57413401-7.8857877-8.09002394-15.73753603-14.59154388-21.50153626-2.8593072-2.53025995-6.34266954-3.83510251-7.70424438-7.21634673-1.91755125-4.7882049-6.33132306-19.99245747-6.80787427-25.30259939-4.79955135-59.55755347-6.1951656-102.11811417-26.7662924-156.27475407a35.41229271 35.41229271 0 0 0-19.17551253-19.78822125c-11.08548862-4.37973246-17.31469357 0.91906303-24.96220569 10.21181142-12.70803199 15.57868564-16.59986678 24.53104032-27.32226877 41.58476538-7.0915357 11.2783784-18.04086684 33.67628477-33.66493832 33.67628476-11.89108707 0-25.938001-7.70424439-40.52954486-11.56203982s-157.51151791-28.0824814-157.51151792-28.0824814-190.9381806 91.90630276-192.09551922 94.1755942c-3.89183479 7.65885856-13.74055957 6.96672469-19.41378815 2.49622057-17.54162272-13.75190604-37.76100933-23.47581982-55.91534075-36.30866282-13.97883518-9.90545709-54.80338794-46.98567898-72.36770357-29.11500899-4.77685846 4.86763011-6.67171679 11.81166187-8.11271685 18.48337866a288.370208 288.370208 0 0 0-6.20651207 58.53637233z" fill="#050505" p-id="6105"></path><path d="M191.35911035 780.44582927c-0.28366142-0.19288977 32.51894613-27.88959163 37.36388334-31.58853665 28.03709558-21.39941816 59.65967158-37.86312745 92.65516894-50.16268698 29.95464682-11.16491382 61.06663229-18.95992986 92.50766498-24.56507968 14.86385884-2.65507097 29.95464682-4.65204742 44.73908049-7.2276932 0.83963781-0.14750395 15.79426833-1.20272445 16.22543369-1.13464572 0.68078743 0.17019686 13.74055957-18.15433141 15.27233131-19.73148894a89.63701133 89.63701133 0 0 1 26.09685139-19.18685901c15.88503997-7.51135461 34.59534779-9.49698462 51.13848229-3.67625212 11.19895321 3.94856708 21.55826857 12.06128392 25.16644191 23.38504814 1.19137801 3.80106315 84.59918437-4.53858286 93.25653116-4.6293545 35.26478877-0.40847244 70.83593187 2.32602371 104.84126391 12.15205558 20.27611889 5.85477187 40.22319053 14.42134701 55.89264782 28.5590326a37.26176521 37.26176521 0 0 1 9.07716571 11.09683508c9.36082713 19.41378816-18.22241015 36.92137151-27.63996958 53.64604932-10.73374845 19.03935506-23.73678832 24.33815054-35.92288328 42.46978905-10.2912366 15.30637067-19.28897713 12.2541737-30.13619014 27.17476482-2.26929142 3.16566154-3.48336234-2.63237805-32.38278865 23.45312689s-199.93592111 68.07874279-199.93592112 68.07874279-46.82682858 8.78215782-144.67867487-7.82905543-193.42305471-120.21571331-193.5365193-120.28379204z" fill="#FFFDFD" p-id="6106"></path><path d="M140.06177767 465.17317142a6.69440971 6.69440971 0 0 1-3.05219696-12.6512997c32.90472568-16.83814237 84.1907119-51.36541144 82.09161734-72.33366422-2.32602371-23.29427649-58.67252983-40.72243465-78.22247547-44.98870252a6.69440971 6.69440971 0 0 1 2.8593072-13.07111861 270.21587658 270.21587658 0 0 1 41.70957642 13.27535485c29.58021374 12.35629182 45.38582851 26.98187506 47.05375773 43.44558435s-12.85553594 35.63922185-44.37599385 58.10520697a403.93387389 403.93387389 0 0 1-44.93197024 27.46977271 6.66037035 6.66037035 0 0 1-3.13162217 0.74886617zM842.08977331 367.19651409a6.66037035 6.66037035 0 0 1-3.71029149-1.13464571 355.14410821 355.14410821 0 0 1-40.32530864-32.11047367c-27.41304043-25.55222146-39.54240309-47.33741915-36.05904075-64.75423085 2.32602371-11.63011857 11.01740987-26.0968514 39.17931647-29.01289091a116.69831159 116.69831159 0 0 1 30.28369408 1.21407092 6.69440971 6.69440971 0 0 1-2.50756704 13.15054381c-0.48789764-0.09077166-48.60822235-8.88427592-53.8389391 17.28065422-4.62935452 23.13542609 40.84724567 63.24515205 70.68842794 83.10145203a6.69440971 6.69440971 0 0 1-3.72163795 12.26552016z" fill="#2D2D2D" p-id="6107"></path><path d="M484.23386184 917.28410227a503.03383047 503.03383047 0 0 1-99.57650779-9.81468543c-46.46374196-9.4742917-86.48269626-25.10970963-118.94491011-46.52047422A298.72952337 298.72952337 0 0 1 185.22067705 783.18032543a283.15083773 283.15083773 0 0 1-45.38582853-102.36773623c-8.04463811-36.45616676-9.50833107-70.22322319-4.35703953-100.37075978a146.36929699 146.36929699 0 0 1 6.80787428-24.82604821c2.8820001-8.28291371 4.7882049-13.75190604 3.40393714-20.07188267C133.70776168 482.63536893 128.71532054 425.2109494 130.98461196 364.88183684a353.72580106 353.72580106 0 0 1 5.94554354-42.98037962c6.9894176-34.74285174 14.65962261-41.85708036 20.54843387-44.17175761 21.47884335-8.4190712 46.83817503 10.63163034 63.61958513 23.23754421 1.78139377 1.33888194 3.40393714 2.59833868 5.0037876 3.73298439 10.94933113 7.99925227 21.55826857 16.69063843 31.77007996 25.08701673 7.55674045 6.20651205 15.38579586 12.61726033 23.22619775 18.64222906a9.63314211 9.63314211 0 0 0 7.29577194 1.8494725 4.22088206 4.22088206 0 0 0 3.02950405-2.26929141c1.31618902-2.43948828 1.41830714-2.6437245 34.32303281-18.59684325 16.4637093-7.94251999 39.31547395-18.9485834 67.94258532-32.59837133 48.72168692-23.22619774 97.91992504-46.52047425 98.41916915-46.71336402l1.86081898-0.88502366 2.03101582 0.34039372c6.01362229 0.99848822 147.50394272 24.56507969 162.67415589 28.4796074 5.84342543 1.50907879 11.47126814 3.54009462 16.90622112 5.50303172 8.5211893 3.07488988 16.57717388 5.96823644 23.14677256 5.96823645 10.21181141 0 19.64071729-15.51060689 25.88126873-25.77915062 1.13464571-1.88351188 2.26929142-3.64221273 3.21104733-5.20802382l2.72314974-4.25492141c10.37066182-16.23678015 21.10441025-33.01819025 33.36993041-47.76858453 8.57792159-10.32527599 24.06583558-20.26477245 39.47432438-14.29653599 11.63011857 4.53858286 17.54162272 16.38428409 20.97959921 24.96220568 17.89336289 44.50080488 25.6203002 100.07575189 24.33815054 174.89429023a72.12942799 72.12942799 0 0 1-0.69213386 7.28442549c-0.397126 3.10892925-1.21407091 9.57640982-0.53328349 11.34645713a9.99622873 9.99622873 0 0 0 2.64372451 2.17851977 37.32984396 37.32984396 0 0 1 3.4947088 2.62103158c8.4190712 7.30711839 13.54766981 17.15584318 16.67929198 23.91833164 6.80787428 14.63692971 10.3479689 30.306387 13.80863833 45.45390727q0.64674805 2.84796075 1.30484257 5.67322857a318.43831939 318.43831939 0 0 1 7.50000816 92.07649961c-3.80106315 60.32911257-24.96220568 120.27244559-59.62563222 168.64239235-68.96376643 96.35411395-189.21351913 158.14691949-321.64936677 165.30653395-9.09985863 0.51059057-18.24510306 0.72617326-27.40169396 0.72617325z m-315.43150825-628.42352821a17.62104791 17.62104791 0 0 0-6.49017349 1.1346457s-6.17247267 3.13162217-12.48110284 34.87900923a344.98902908 344.98902908 0 0 0-5.67322856 40.48415904c-2.17851977 59.19446685 2.6437245 115.47289423 14.35326826 167.26947103 2.26929142 9.99622873-0.53328349 18.01817392-3.76702377 27.31092232a133.20740672 133.20740672 0 0 0-6.24055142 22.69291427c-4.86763011 28.45691447-3.40393714 60.53334879 4.24357497 95.31023991 15.47656753 70.0870657 58.16193926 131.17639089 120.20436685 172.01229009 58.25271091 38.33967865 147.22028127 58.29809674 237.94655251 53.39642726 128.48728055-6.94403177 244.98135592-66.68312855 311.64179155-159.81484868 33.23377294-46.44104903 53.55527765-103.89950795 57.19749042-161.80047871a305.21969683 305.21969683 0 0 0-7.18230737-88.26409002q-0.65809452-2.8593072-1.31618902-5.72996084c-3.31316547-14.48942576-6.73979554-29.50078854-12.92361468-42.86691504-4.16414977-9.00908697-8.4190712-15.20425256-13.3661265-19.50455982a26.23300888 26.23300888 0 0 0-2.26929143-1.71331501c-2.53025995-1.73600794-5.67322856-3.90318126-7.3865436-8.06733104-1.98563-4.87897655-1.13464571-11.52800044-0.32904724-17.96144164 0.29500789-2.26929142 0.56732286-4.48185057 0.59001576-5.85477188 1.24811029-73.00310518-6.18381915-126.93281594-23.3963946-169.74299867-2.51891347-6.26324435-6.66037035-14.89789822-13.502284-17.55296919-8.31695308-3.22239383-18.33587472 2.91603948-24.57642613 10.4273941-11.74358313 14.12633913-22.23905599 30.55600905-32.39413512 46.45239549l-2.72314971 4.26626789c-0.94175594 1.47503943-1.96293707 3.14296862-3.04085051 4.93570885-7.77232313 12.78745719-19.50455981 32.12182015-37.14830065 32.12182015-8.86158302 0-17.9727881-3.27912612-27.6059302-6.75114201-5.162638-1.86081896-10.49547284-3.77837023-15.74888248-5.13994508-11.57338627-2.9614253-108.19981521-19.33436295-159.53118728-27.87824516-73.12791621 34.56130842-181.25965267 86.04018443-193.82018072 92.98421619a17.39411876 17.39411876 0 0 1-10.89259885 7.28442547 22.69291426 22.69291426 0 0 1-18.08625266-4.28896078c-7.99925227-6.16112623-15.88503997-12.63995325-23.54389855-18.90319759-10.09834684-8.28291371-20.54843386-16.84948885-31.20275711-24.63315843-1.58850399-1.13464571-3.31316547-2.45083475-5.15129153-3.83510252-11.68685085-8.79350428-30.15888305-22.67022135-44.41003323-22.67022135z" fill="#020202" p-id="6108"></path><path d="M335.62931279 492.0415819a6.58094513 6.58094513 0 0 1-6.56959869-6.18381913 72.35635713 72.35635713 0 0 1 5.26475611-28.67249717c5.60514982-13.9221029 18.27914244-32.05374139 46.79278923-39.41759208a6.59229159 6.59229159 0 0 1 3.301819 12.76476428c-44.01290721 11.34645714-42.28824573 52.79506503-42.19747406 54.55376589a6.60363805 6.60363805 0 0 1-6.20651204 6.94403175zM700.57675996 437.82820974a6.58094513 6.58094513 0 0 1-5.54841753-3.02950406c-19.89033934-30.95313506-59.98871886-23.82755998-60.39719132-23.82755999a6.59229159 6.59229159 0 0 1-2.41679538-12.95765403c1.99697646-0.3744331 49.26631686-8.71407907 73.89947532 29.60290666a6.59229159 6.59229159 0 0 1-5.53707109 10.15507914z" fill="#2D2D2D" p-id="6109"></path><path d="M517.49032769 579.71565616a27.526505 26.06281203 90 1 0 52.12562406 0 27.526505 26.06281203 90 1 0-52.12562406 0Z" fill="#E88987" p-id="6110"></path><path d="M508.82163445 722.13638607c-19.50455981 0-39.81471807-13.36612651-40.84724568-14.03556747a6.59229159 6.59229159 0 0 1 7.30711839-10.97202404c6.71710263 4.45915766 27.02726089 15.09078799 40.22319055 10.88125238 6.97807114-2.26929142 10.83586656-7.10288216 14.90924464-12.25417369 5.2420632-6.61498451 11.7549296-14.86385884 24.50834742-11.77762251 7.11422862 1.71331503 12.48110284 5.32148839 17.21257546 8.49849638 7.39789005 4.96974822 13.79729186 9.27005547 27.08399318 7.50000818 21.55826857-2.8820001 32.90472568-21.64904022 33.00684379-21.84192997a6.59229159 6.59229159 0 1 1 11.34645713 6.69440968c-0.59001577 0.99848822-14.75039427 24.48565449-42.61729299 28.20729244-18.24510306 2.42814183-28.18459953-4.25492141-36.18385178-9.62179565-4.36838599-2.92738595-8.13540976-5.46899233-12.94630758-6.62633097-4.1301104-0.99848822-5.78669314 0.46520474-11.07414218 7.148268-4.65204742 5.87746479-10.43874055 13.18458318-21.25191421 16.63390615a35.1740171 35.1740171 0 0 1-10.67701614 1.56581109zM553.88976216 768.22569493a54.655884 54.655884 0 0 1-22.37521345-4.64070096 6.59229159 6.59229159 0 0 1 5.76400022-11.84570125 41.55072603 41.55072603 0 0 0 43.49097018-6.89864593 6.59229159 6.59229159 0 1 1 8.48714993 10.08700039c-12.35629182 10.39335473-25.03028443 13.29804775-35.36690688 13.29804775zM82.27427151 725.23396887a4.7882049 4.7882049 0 0 1-2.05370875-9.07716571c83.50992449-39.63317476 194.5917398-49.47055309 273.07518379-50.74135629 84.84880643-1.37292131 150.98730505 6.69440971 151.64539954 6.80787429a4.7882049 4.7882049 0 0 1-1.13464572 9.50833107c-0.65809452-0.07942519-66.24061674-8.06733103-150.45402153-6.6944097-77.49630222 1.25945673-187.05769227 10.92663823-268.97911277 49.8109468a4.76551199 4.76551199 0 0 1-2.09909456 0.38577954z" fill="#2D2D2D" p-id="6111"></path><path d="M312.52792606 337.35533183c-1.81543313 18.34722118 13.80863833 39.23604875 23.97506392 53.57797056a228.06378832 228.06378832 0 0 0 42.68537173 45.31774981c36.1838518 29.21712712 83.72550717 47.65511995 130.41617827 47.54165536 44.69369464-0.13615747 95.93429505-18.46068576 122.64385513-56.04015176 27.70804831-38.9864267 32.50759969-89.77316883 26.72090654-136.07806038-2.26929142-17.79124479-167.38293559-36.14981242-167.38293559-36.14981242l-165.68096703 55.04166354c-1.96293707 0.65809452-7.22769318 11.14222091-8.57792161 13.25266193a30.46523741 30.46523741 0 0 0-4.79955136 13.53632336z" fill="#050505" p-id="6112"></path><path d="M509.12798878 490.37365272c-46.62259236 0-95.44639738-17.84797708-134.03569809-49.00534837a234.20222165 234.20222165 0 0 1-43.92213555-46.62259234l-1.47503942-2.07640164c-10.8245201-15.20425256-25.65433958-36.02500138-23.68005604-55.9607266a37.18234002 37.18234002 0 0 1 5.76400021-16.46370929c0.22692915-0.35174017 0.86233074-1.49773235 1.41830715-2.50756703 5.12859862-9.27005547 7.26173255-12.3335989 10.63163034-13.45689815L490.91692509 248.76219455l1.42965359 0.1588504c0.41981892 0 41.98189138 4.6860868 83.19222369 11.44857526 81.2065937 13.30939422 88.99026328 22.32982762 90.00009797 30.43119801 4.9243624 39.36085979 4.07337811 95.73005882-27.88959163 140.69606844-25.27990648 35.57114312-75.52201866 58.66118337-127.98803644 58.8086873zM319.12021765 338.00207988c-1.48638589 15.01136278 11.68685085 33.51743437 21.3086465 47.01971836l1.48638588 2.09909456a221.02898492 221.02898492 0 0 0 41.44860791 44.00156077c36.30866283 29.29655231 82.09161735 46.07796241 125.75278439 46.07796241h0.49924412c36.71713528-0.10211812 89.46681448-14.12633913 117.28832736-53.27161622 29.2738594-41.18763939 30.17022951-93.54019259 25.66568602-130.48425702-2.26929142-2.09909458-14.8752053-9.68987439-83.8503182-20.72997718-35.00382025-5.60514982-69.11127038-9.59910274-76.41838878-10.43874057l-162.96916377 54.09990762c-1.30484257 1.80408669-3.6535592 6.04766166-4.6066616 7.77232313-0.80559846 1.46369296-1.38426777 2.50756704-1.83812605 3.21104737a23.82755998 23.82755998 0 0 0-3.76702378 10.64297677z" fill="#1E1E1E" p-id="6113"></path><path d="M513.55310706 453.78132846a163.09397481 163.09397481 0 0 1-64.45922295-13.38881943C405.90926825 421.46661856 372.66414887 382.17383749 347.59982506 320.24487448l12.20878787-4.95840177c23.74813477 58.55906527 54.67857692 95.52582258 94.56137374 113.01071303 43.5930883 19.10743381 104.7618387 18.59684323 137.29213128-19.36840233 9.34948067-10.90394531 16.23678015-25.37067814 20.49170159-43.01441898 7.37519713-30.63543425 8.9183153-61.82684491 4.32300016-87.75349947l-0.11346456-0.64674804a11.58473272 11.58473272 0 0 0-0.30635436-1.48638589l12.48110284-4.3910789a21.31999295 21.31999295 0 0 1 0.87367721 3.69894502l0.09077165 0.52193704c4.90166946 27.66266247 3.31316547 60.73758502-4.53858285 93.13172012-4.74281909 19.68610312-12.5718745 36.01365494-23.29427648 48.51745071-21.87596935 25.58626082-54.8714667 36.27462346-88.11658609 36.27462344z" fill="#1E1E1E" p-id="6114"></path><path d="M279.97494055 302.39689741c-12.98034695 8.71407907 14.19441788 47.85935618 21.89866226 52.91987605 6.93268532 4.53858286 90.99858619-48.85784441 150.83980112-59.52351411a400.92706274 400.92706274 0 0 1 172.12575467 6.8078743q11.85704771 3.13162217 23.50985918 7.02345696c5.44629943 1.82677961 18.0295204 10.09834684 18.99396924 0.36308662 1.13464571-11.11952798 3.33585839-46.1573876 0-50.0492224s-58.38886841-29.50078854-87.31098762-36.70578882-65.61656159-12.78745719-93.42672803-10.56355159S401.03029169 226.06928029 358.16337664 251.62150175c-18.21106368 10.88125238-37.78370225 20.97959924-54.31549027 34.47053678-7.11422862 5.78669314-17.77989833 12.20878787-23.87294582 16.30485888z" fill="#F7CDDF" p-id="6115"></path><path d="M279.86147598 303.96270849c-12.54918159 7.25038611 16.31620537 43.01441899 23.7708277 47.22395459 6.70575616 3.78971668 85.41612929-43.84271037 143.2944071-52.70429338a449.31970239 449.31970239 0 0 1 166.46387258 5.67322856q11.47126814 2.60968514 22.69291428 5.84342543c5.2647561 1.50907879 17.42815815 8.39637829 18.36991408 0.30635434 1.07791343-9.24736257 6.80787428-34.70881237 0-41.6074583S598.01613395 244.22361169 570.09250294 238.1646036s-63.46073473-10.63163034-90.35183813-8.78215782-82.82913706 11.09683508-124.23235913 32.36009574c-17.60970147 9.07716571-36.53559196 17.43950462-52.52275005 28.6611507-6.92133885 4.87897655-17.22392193 10.15507913-23.12407965 13.55901627z" fill="#D81E12" p-id="6116"></path><path d="M302.9628627 362.22676587a8.16944913 8.16944913 0 0 1-4.72012616-1.37292132c-7.94251999-5.19667736-28.24133181-33.78974933-28.36614283-50.61654526 0-7.42058297 3.40393714-11.34645714 6.37670891-13.28670131 1.69062212-1.13464571 3.73298439-2.45083475 5.94554354-3.88048832a207.70824424 207.70824424 0 0 0 17.42815816-12.06128394c13.09381152-10.68836261 27.93497746-19.28897713 42.28824571-27.54919791 4.23222851-2.43948828 8.61196095-4.96974822 12.81015012-7.47731526C399.53255936 219.26140601 458.37528603 208.34611426 486.12872016 206.12220865c24.96220568-1.99697646 60.65815983 2.01966935 95.54851553 10.74509491 26.47128449 6.61498451 85.25727888 32.4508674 90.71492475 38.80488339 2.01966935 2.36006309 3.78971668 6.18381915 3.2564332 26.77763883-0.29500789 11.15356736-1.13464571 22.98792214-1.70196858 28.21863887s-3.22239383 7.87444125-5.40091358 9.07716573c-5.92285062 3.40393714-13.09381152 0.1588504-18.85781175-2.45083475-1.33888194-0.61270868-2.60968514-1.13464571-3.40393715-1.44100007-7.56808691-2.53025995-15.34041004-4.85628365-23.10138672-6.89864593a395.44672395 395.44672395 0 0 0-169.2891404-6.70575615c-35.29882813 6.28593724-79.06211329 27.75343414-111.02508303 43.42289144-23.82755998 11.70954376-33.92590683 16.55448096-39.90548973 16.55448095z m0.06807876-13.19592965z m-19.3797488-41.14225356c-0.51059057 0.34039372-0.54462995 1.83812607-0.54462993 2.26929142 0 11.08548862 15.22694546 33.00684379 21.13844963 38.57795427 5.23071674-1.38426777 19.81091415-8.53253576 32.80260758-14.89789822 32.66645008-16.02119747 77.3941841-37.95389912 114.50844535-44.56888361a408.72207878 408.72207878 0 0 1 174.96236897 6.9326853c8.03329165 2.12178748 16.07792975 4.53858286 23.90698516 7.148268 1.41830714 0.4765512 2.98411823 1.13464571 4.65204744 1.94024417a57.5946164 57.5946164 0 0 0 5.86611834 2.39410243c1.33888194-14.41000055 2.26929142-37.51138727 0.97579531-43.6384741-8.31695308-5.37822067-56.86844314-27.77612704-83.47588511-34.42515095-33.57416666-8.39637829-67.7043097-12.27686661-91.30494054-10.39335473-24.746623 1.97428354-82.82913706 12.48110284-125.60528044 38.01063139-4.28896079 2.56429932-8.70273262 5.10590571-12.98034696 7.57943335-13.89940998 8.03329165-28.27537118 16.3275518-40.55223779 26.34647348a216.8307958 216.8307958 0 0 1-18.63088262 12.93496112c-2.13313394 1.37292131-4.09607101 2.63237805-5.72996084 3.73298439z m377.0881563 1.81543315z m0.95310242-46.44104904z" fill="#020202" p-id="6117"></path><path d="M255.68217584 290.56254263c13.22996902 12.14070914 20.87748112 18.69896137 39.90548973 10.67701615 8.2034885-3.40393714 16.07792975-9.70122084 22.96522924-15.20425255 48.44937195-38.7481511 107.05382304-66.37677421 170.53725067-71.65287678S610.71281947 236.81437518 666.92316811 262.37794311c10.04161455 4.53858286 20.42362283-2.92738595 27.14072545-9.16793736 8.04463811-7.51135461 16.14600851-15.07944153 22.40925284-24.0091033 12.59456741-17.93874873 13.96748873-31.11198545-4.6860868-43.40019851C642.7098286 140.26737146 557.23696702 117.58580366 473.64761733 123.95116612c-49.76556098 3.82375605-98.10146836 18.75569365-141.83071414 41.53937955a430.03072527 430.03072527 0 0 0-63.1543804 40.3366551c-12.88957531 9.89411061-44.53484423 28.67249716-41.13090709 47.37145852 1.30484257 7.12557508 5.87746479 13.25266193 10.60893741 18.89185113a200.42381877 200.42381877 0 0 0 17.54162273 18.47203221z" fill="#FFFDFD" p-id="6118"></path><path d="M269.8539008 315.08223648c-17.54162272 0-30.97582797-12.85553594-39.79202517-21.29730002a222.85576453 222.85576453 0 0 1-18.94858341-20.71863073c-5.51437818-6.86460657-10.83586656-14.47807929-12.48110284-23.57793793-3.84644896-21.98943393 21.966741-41.98189138 39.05450546-55.1324352 1.87216542-1.45234651 3.59682691-2.779882 5.09455925-3.97125997 21.98943393-17.59835501 46.79278923-31.77007997 68.14682152-43.41154501 48.71034047-26.43724511 99.46304321-41.98189138 150.85114757-46.04392302a385.34837709 385.34837709 0 0 1 132.32238305 12.6512997A396.68348777 396.68348777 0 0 1 714.8846424 169.33699464c27.02726089 18.57415033 17.74585895 39.90548972 6.63767742 56.41458486-6.95537822 10.33662245-15.77157541 18.91454403-24.28141825 27.23149711-12.91226821 12.58322097-24.96220568 16.36159118-35.77537935 11.23299255C597.77785835 234.01180028 542.63407669 215.05187041 480.4554916 220.39605172c-61.03259291 5.28744903-116.68696514 29.50078854-170.19685696 74.17179027l-1.1346457 0.98714178c-7.08018926 5.91150417-14.39865409 12.03859102-23.35100879 15.96446517a39.31547395 39.31547395 0 0 1-15.91907935 3.56278754z m222.26574873-202.19386607q-14.62558324 0-29.23982002 1.13464571c-48.78976567 3.91452772-99.19072825 19.28897713-145.60908437 44.48945841-20.85478821 11.34645714-45.02274191 25.17778838-66.20657736 42.11804888-1.54311818 1.23676383-3.32451196 2.62103159-5.27610256 4.11876394-12.78745719 9.88276416-36.6036707 28.27537118-34.13014305 42.43574965 1.13464571 6.47882701 5.61649627 12.48110284 9.72391377 17.59835503a209.3875199 209.3875199 0 0 0 17.77989831 19.44782751c15.51060689 14.84116593 26.68686717 21.66038666 41.31245042 15.23829193 7.23903965-3.177008 13.53632336-8.44176411 20.1966937-14.01287457l1.191378-0.99848822c55.59763994-46.39566321 113.66880755-71.64153032 177.46993597-77.15590848 68.91838062-5.9795829 130.9608082 18.15433141 187.73847972 45.02274189 5.33283486 2.53025995 12.36763826-0.41981892 20.93421339-8.75946492 8.03329165-7.82905542 16.35024473-15.88503997 22.54541033-25.13240254 12.39033119-18.41529991 11.59607919-28.04844203-3.16566154-38.1921747-63.86920717-43.88809618-139.35718649-67.35256953-215.26498471-67.35256952z" fill="" p-id="6119"></path><path d="" fill="#EBD038" p-id="6120"></path><path d="M483.34883818 167.14712841a44.78446629 44.78446629 0 0 1 30.43119803 12.11801623 48.97130897 48.97130897 0 0 1 5.17398445 65.71867969 44.25118281 44.25118281 0 0 1-65.42367181 5.02648051 48.97130897 48.97130897 0 0 1-5.17398446-65.7186797 44.25118281 44.25118281 0 0 1 34.99247379-17.14449673m0-13.38881941a57.86693136 57.86693136 0 0 0-5.82073251 0.29500787c-32.39413511 3.27912612-55.90399428 33.06357608-52.5114036 66.52427817 3.18835445 31.44103271 28.97885152 54.93954543 59.00157707 54.93954542a57.78750617 57.78750617 0 0 0 5.8207325-0.29500789c32.39413511-3.27912612 55.90399428-33.06357608 52.51140362-66.52427815-3.18835445-31.44103271-28.97885152-54.93954543-59.00157708-54.93954542z" fill="" p-id="6121"></path><path d="M512.92905192 220.75913835l-32.28067053-35.95692264-24.42892222 41.69822996 11.7549296-1.19137801 2.03101583 19.99245746 33.1883871-3.36989775-2.01966938-19.98111102 11.7549296-1.191378z" fill="#1C489D" p-id="6122"></path><path d="M469.99405812 248.34237564a3.04085052 3.04085052 0 0 1-3.01815758-2.73449617l-1.71331503-16.96295342-8.72542552 0.88502367a3.04085052 3.04085052 0 0 1-2.92738594-4.53858285l24.41757573-41.69822997a3.04085052 3.04085052 0 0 1 4.89032304-0.49924411l32.28067053 35.95692265a3.04085052 3.04085052 0 0 1-1.95159064 5.06051988l-8.72542552 0.88502365 1.71331502 16.96295342a3.04085052 3.04085052 0 0 1-2.72314971 3.33585839l-33.19973356 3.40393715z m-2.01966935-26.09685141a3.04085052 3.04085052 0 0 1 3.02950404 2.73449618l1.71331504 16.97429986 27.14072546-2.74584264-1.71331504-16.9629534a3.04085052 3.04085052 0 0 1 2.72314971-3.33585839l5.79803961-0.59001576-25.49548918-28.36614283-19.28897712 32.90472568 5.79803959-0.59001578z" fill="" p-id="6123"></path><path d="M350.8449118 567.65437222a93.31326344 68.30567192 90 1 0 136.61134386 0 93.31326344 68.30567192 90 1 0-136.61134386 0Z" fill="#E8CA4B" p-id="6124"></path><path d="M593.38677943 534.25040243a91.33897991 69.65590032 90 1 0 139.31180067 0 91.33897991 69.65590032 90 1 0-139.31180067 0Z" fill="#E8CA4B" p-id="6125"></path><path d="M384.85024384 561.36843498a63.94863239 47.8253168 90 1 0 95.6506336 0 63.94863239 47.8253168 90 1 0-95.6506336 0Z" fill="#070707" p-id="6126"></path><path d="M628.42463905 527.99850456a63.94863239 47.8253168 90 1 0 95.65063363 0 63.94863239 47.8253168 90 1 0-95.65063363 0Z" fill="#070707" p-id="6127"></path><path d="M427.73730904 557.7238565a33.38127689 18.56280386 84.37 1 0 36.94651978-3.64216962 33.38127689 18.56280386 84.37 1 0-36.94651978 3.64216962Z" fill="#FFFFFD" p-id="6128"></path><path d="M406.61251373 584.53233727a13.6044021 8.71407907 79.78 1 0 17.15163818-3.09224883 13.6044021 8.71407907 79.78 1 0-17.15163818 3.09224883Z" fill="#FFFFFD" p-id="6129"></path><path d="M676.50340622 526.59394932a34.0620643 19.06204798 84.37 1 0 37.94019259-3.74012587 34.0620643 19.06204798 84.37 1 0-37.94019259 3.74012587Z" fill="#FFFFFD" p-id="6130"></path><path d="M654.17558237 554.22515715a12.07263039 8.81619719 80.94 1 0 17.41241267-2.77655066 12.07263039 8.81619719 80.94 1 0-17.41241267 2.77655066Z" fill="#FFFFFD" p-id="6131"></path><path d="M585.04713345 677.65827411a4.7882049 4.7882049 0 0 1-2.33737017-8.97504757 1340.7087211 1340.7087211 0 0 1 150.46536802-69.21338851c78.65364083-30.46523741 191.17645622-64.45922295 280.64327068-53.41912017a4.7882049 4.7882049 0 1 1-1.13464571 9.50833107c-87.49253094-10.80182718-198.38145649 22.78368591-276.00256974 52.85179732a1329.63457892 1329.63457892 0 0 0-149.26264354 68.70279792 4.76551199 4.76551199 0 0 1-2.37140954 0.54462994z" fill="#2D2D2D" p-id="6132"></path></svg>